Patient4_TMGait_0pt2_03_left_22_EMG.mot
version=1
nRows=36
nColumns=33
inDegrees=no
endheader
time	1LAddLong	2LGlutMax	3LGlutMed	4LIliopsoas	5LSemiMemb	6LBicFemLong	7LRecFem	8LVastMed	9LVastLat	10LGasMed	11LTibAnt	12lTibPost	13LPeroneusLong	14LSol	15LExtDigLong	16LFlexDigLong	17RAddLong	18RGlutMax	19RGlutMed	20RIliopsoas	21RSemiMemb	22RBicFemLong	23RRecFem	24RVastMed	25RVastLat	26RGasMed	27RTibAnt	28RTibPost	29RPeroneusLong	30RSol	31RExtDigLong	32RFlexDigLong
48.195	0.006104	-0.013733	-0.005035	-0.016937	0.020142	-0.022278	-0.033722	0.009613	0.033722	0.00351	-0.058899	-0.000763	-0.040741	-0.059204	0.233	-0.012207	0.007324	0.21378	0.46783	0.08728	0.12283	0.048676	-0.080872	-0.30792	0.34622	-0.002136	0.004578	-0.059052	-0.059357	-0.10071	-0.005341	-0.006256
48.196	0.016022	-0.0383	-0.022125	-0.030212	0.030365	-0.027771	-0.050507	0.002594	0.018311	0.005951	-0.34149	0.005188	-0.031738	-0.083618	0.17883	0.005341	-0.040436	0.24612	0.56015	0.043793	0.19333	0.061951	-0.072327	-0.085297	0.31082	-0.009613	0.011139	-0.018768	-0.03891	-0.046844	-0.001984	-0.011597
48.197	0.006714	-0.034485	-0.022888	-0.00412	0.021057	-0.029144	-0.045013	-0.006104	0.02182	-0.00351	-0.094757	0.005646	-0.028381	-0.097351	0.10315	-0.019531	-0.061493	0.25253	0.012512	0.013885	-0.050507	0.067444	0.10483	0.23071	0.079346	-0.006714	0.013275	-0.002441	-0.15457	-0.097046	-0.003662	-0.024109
48.198	0.007629	-0.043793	-0.041199	0.011139	0.024719	-0.035248	0.006714	-0.014496	0.031281	-0.011597	0.057831	-0.000153	-0.009155	-0.093994	0.12604	-0.014496	-0.074768	0.28153	0.093231	0.032349	0.049133	0.029907	0.11078	0.93597	-0.37384	0.01236	0.040131	-0.015564	-0.57846	-0.38834	-0.002289	-0.024872
48.199	0.006866	-0.025787	-0.026855	0.002594	0.023804	-0.010071	0.097809	0.005188	0.026855	-0.017395	0.11581	0.009918	-0.024109	-0.073853	0.060425	-0.019684	-0.067444	0.26199	-0.076752	0.007477	0.1506	0.046539	0.17792	1.4099	-0.90683	0.020599	0.00473	-0.050812	-0.83572	-0.4509	-0.003052	-0.012665
48.2	0.015869	-0.008392	-0.004272	0.020447	0.019379	0.004883	0.11414	-0.013428	0.014801	-0.017395	0.025635	0.001984	-0.030975	-0.055847	0.23911	-0.002136	-0.032806	0.24536	0.28686	-0.039978	0.070953	-0.005951	0.37552	1.1496	-1.0587	0.010681	-0.018005	-0.13077	-0.73029	-0.34882	-0.008698	-0.011902
48.201	-0.009003	0.021515	-0.017395	-0.022583	0.013885	0.028687	0.10544	-0.00412	0.001526	0.003815	-0.065765	0.005798	-0.040741	-0.037537	0.20096	-0.003357	-0.018768	0.29251	0.44617	-0.002899	0.077515	-0.011444	0.5014	0.62637	-0.62866	0.020142	0.014343	-0.18982	-0.44479	-0.15839	-0.001984	-0.00824
48.202	0.009155	0.033722	-0.01358	-0.015259	0.011292	0.032043	0.084534	0.004578	-0.007324	-0.01358	-0.042114	0.003967	-0.03891	-0.037842	-0.029602	-0.020294	0.018921	0.2272	0.24002	-0.037537	0.095978	-0.044403	0.81207	0.30868	-0.34988	-0.005951	0.041962	-0.22873	-0.16312	0.26962	-0.00351	-0.002441
48.203	-0.005035	0.043793	-0.003357	0.014496	0.025024	0.039063	0.072327	-0.002441	0.003052	-0.011444	0.13275	0.005951	-0.029449	-0.031891	-0.020905	-0.013885	0.041199	0.045319	0.28641	-0.14999	0.087433	-0.031128	0.90195	-0.048676	-0.3244	-0.071716	-0.002136	0.40314	0.20615	-0.42297	-0.001678	0.003967
48.204	0.008087	0.03418	-0.002899	0.014801	0.00824	0.03006	0.055389	-0.000916	0.001678	-0.016785	0.13534	-0.000305	-0.022278	-0.052948	-0.096436	-0.013885	0.023651	-0.067596	0.68893	-0.18295	-0.14206	0.023804	0.87006	-0.21927	-0.16373	-0.054626	-0.044403	0.23911	0.55267	-0.67963	-0.000916	-0.000916
48.205	-0.007019	0.023193	-0.025482	-0.00824	0.011292	0.017395	-0.003662	-0.002136	0.007324	-0.016785	0.049438	0.013123	-0.014496	-0.093994	-0.11108	-0.015106	0.036163	-0.11551	0.28976	-0.12787	-0.11032	0.003967	0.87204	-0.038605	0.062866	-0.024414	-0.021667	-0.35645	0.75867	-0.13855	-0.002594	0.000763
48.206	0.006409	0.014648	-0.076447	-0.011292	0.00946	-0.002594	-0.02121	-0.003052	-0.005951	-0.001678	0.039063	0.002289	-0.075836	-0.052185	-0.03006	-0.003357	0.042877	-0.2504	-0.1709	0.097656	-0.054626	-0.014038	0.48782	-0.27786	0.34393	-0.011444	-0.011444	0.056915	0.38238	0.4866	-0.000916	0.003052
48.207	-0.003357	-0.012054	-0.096436	-0.006104	0.014954	0.005646	-0.050507	0.003662	-0.000305	-0.00351	0.007782	0.007629	-0.053253	-0.037231	0.050964	-0.006409	0.034332	-0.25345	-0.044403	0.15274	-0.11108	0.011902	-0.2388	-0.5191	0.60333	-0.014954	-0.000916	0.27191	0.22903	0.51621	-0.001678	-0.009613
48.208	0.007324	0.007019	-0.027618	0.007782	0.014801	0.005646	-0.083313	0.004883	0.01358	-0.023651	0.002136	0.006256	-0.002441	-0.043793	0.045776	-0.011597	0.040131	-0.30334	-0.019989	0.080414	-0.2623	0.014496	-0.63812	-0.58273	1.0791	-0.010986	0.00885	0.1709	0.39719	0.34805	-0.001831	-0.014648
48.209	0.010681	0.020752	0.019684	0.027008	0.016632	0.005798	-0.033264	0.003357	0.003967	-0.029755	0.005798	-0.001221	0.035248	-0.048065	0.033569	0.000916	0.06012	-0.28198	-0.29266	-0.09201	-0.32074	-0.003662	-0.73273	-0.63446	1.2473	0.003204	0.007782	0.009155	0.39154	0.031433	-0.002594	0.000458
48.21	0.007324	0.029449	0.04776	0.061035	0.019531	0.014954	-0.02121	0.003815	0.006866	-0.040741	0.017853	0.003662	0.005646	-0.02594	0.038147	-0.017548	0.018005	-0.31036	-0.58899	-0.078278	-0.14191	-0.02594	-1.0649	-0.85663	1.2405	0.004883	0.037231	-0.054626	0.2417	-0.070801	-0.001526	-0.012817
48.211	0.009308	0.073547	0.11475	0.032043	0.022278	-0.002441	-0.0383	0.004883	0.010376	-0.035706	0	0.002594	-0.024261	-0.053406	0.045166	-0.005951	-0.040894	-0.31464	-0.93704	-0.001526	0.050354	-0.009613	-1.0326	-1.1009	0.7666	-0.010986	0.053864	0.034027	0.17883	-0.12741	0.00412	-0.011597
48.212	0.019836	-0.003815	0.015869	-0.022888	0.027008	-0.001526	-0.045929	0.000305	0.011139	-0.010834	0.022888	0.000458	-0.059204	-0.023804	0.057068	-0.008392	-0.029755	-0.25131	-1.1357	0.074158	0.14603	0.001831	-0.73379	-1.0225	-0.0914	-0.026855	-0.01297	0.01297	-0.044403	-0.28503	0.000305	-0.014038
48.213	0.013428	-0.015411	-0.02533	-0.015869	0.02655	-0.024109	-0.038605	-0.000153	0.011902	0.001526	0.036316	0.005341	-0.073395	-0.026855	0.038757	-0.021057	0.014038	-0.18677	-0.63767	0.14389	0.1471	0.002747	-0.41977	-0.76401	-0.54062	-0.034485	0.042877	-0.013733	-0.43488	-0.41565	0.000763	-0.009155
48.214	0.005341	-0.048065	-0.016937	0.016785	0.018463	0.005798	-0.003815	0.003052	0.005493	0.004425	0.041962	0.006866	-0.081177	-0.007629	-0.059967	-0.011444	0.037842	-0.26077	0.026245	0.17364	0.10925	0.005951	-0.36011	-0.37811	-0.58563	-0.027771	0.073853	-0.017395	-0.52887	-0.44373	-0.003357	-0.009766
48.215	0.009918	-0.024567	0.00473	0.036316	0.01236	-0.001373	0.034943	0.005341	0.004425	-0.005798	0.15503	0.007019	-0.089569	-0.022583	0.05127	-0.000305	0.032043	-0.22018	0.38788	-0.015869	0.017242	-0.022125	-0.23712	-0.18387	-0.71594	0.046844	-0.028534	-0.016174	-0.39475	-0.36438	-0.000153	-0.008087
48.216	0.004272	0.003815	0.038452	0.015106	0.010529	-0.001068	0.03952	0.003967	0.003204	-0.01236	0.15701	0.007019	-0.048676	-0.00473	0.37064	-0.002594	0.055389	-0.11429	0.30914	-0.13321	-0.025024	0.067902	-0.033112	-0.021667	-0.8017	0.092621	-0.051575	-0.06958	-0.51178	-0.50934	-0.00061	-0.01358
48.217	-0.003815	-0.003815	0.044708	-0.016479	0.014801	0.022278	0.029755	-0.002441	0.000763	-0.011902	0.095062	0.007172	-0.020599	0.004425	-0.12512	-0.002289	0.04837	-0.05249	-0.39566	-0.088348	0.007935	0.080872	0.072021	0.034027	-0.88745	0.050659	-0.024109	0.00412	-0.2655	-0.88104	-0.001373	-0.007782
48.218	0.000153	-0.021515	0.033875	-0.017853	0.009155	0.016022	0.034485	-0.001831	0.009613	-0.005493	-0.071564	0.001831	0.004272	0.027771	-0.080261	-0.011292	0.055237	-0.008392	-0.41702	0.053406	-0.10178	0.046539	-0.017548	0.064697	-0.66009	0.068207	-0.009918	-0.021667	0.059509	-0.33554	-0.002441	0
48.219	-0.000458	-0.052032	0.029449	-0.018311	0.014191	0.007782	0.037079	0.001831	0.010529	-0.004578	-0.033569	0.012665	-0.00412	0.026703	-0.05661	-0.017853	-0.013428	0.06485	-0.023041	0.12955	-0.016022	0.059357	-0.063782	0.15091	-0.28351	0.005341	0.032043	-0.07019	0.25757	0.3157	-0.000305	-0.012665
48.22	0.01297	-0.050354	0.011749	-0.028687	0.01297	-0.004883	-0.00412	0.005646	0.011597	-0.006256	0.060883	0.011139	-0.024414	-0.001221	-0.042114	-0.014496	-0.058594	0.088196	0.59662	0.22736	0.028229	0.014191	0.1532	0.30243	0.046997	-0.033417	0.000763	-0.19272	0.43228	0.71045	-0.002441	-0.000763
48.221	0.009155	-0.036774	0.00061	-0.02533	0.016937	-0.016327	0.007019	0.002747	0.024414	0.005493	0.039978	0.007629	-0.057068	-0.026245	-0.14938	-0.018005	-0.013428	0.083466	0.43762	0.21622	0	0.026398	0.062103	0.29831	0.30945	-0.032349	0.000763	-0.052948	0.38223	1.0129	-0.00946	-0.003204
48.222	0.014648	-0.019531	-0.020599	0.004425	0.019836	-0.013123	-0.032654	0.002747	0.022278	0.003967	0.005951	0.005188	-0.049896	-0.020294	-0.056915	-0.007782	0.022583	0.11154	0.37369	0.14847	-0.003357	0.011597	0.059357	0.30701	0.41428	-0.002289	0.005188	0.065308	0.29785	0.87555	-0.002747	-0.010071
48.223	0.01358	-0.010529	-0.012665	0.023499	0.0177	-0.029297	-0.031281	-0.002136	0.030518	-0.002441	-0.14435	0.005341	0.007629	-0.040436	-0.1001	-0.004883	0.001831	0.096283	0.30411	0.045013	0.097656	-0.018921	0.13657	0.56793	0.53284	0.025635	0.024261	0.12009	0.26932	0.10193	0.000153	-0.006714
48.224	-0.005798	-0.02594	-0.000458	0.00885	0.01709	-0.037537	-0.039063	-0.000305	0.026245	-0.030518	-0.14587	-0.010071	0.023956	-0.040894	-0.08728	-0.016022	-0.036163	0.13657	0.010071	-0.043335	0.092773	-0.014191	0.14557	0.6868	0.57159	-0.008545	0.042267	0.12238	0.20844	0.053101	-0.007782	0.005646
48.225	0.009766	-0.015717	0.002747	0.000763	0.01358	-0.023041	-0.050354	0.000305	0.014496	-0.033112	-0.072784	0.011292	0.034332	-0.05127	-0.066376	-0.014191	-0.038605	0.053558	-0.23392	-0.039063	0.021515	0.007477	0.40497	0.51193	0.27176	-0.029907	0.001678	0.025482	0.070343	0.43503	-0.005493	0.000916
48.226	0.00412	-0.036621	-0.01709	0.002441	0.007172	-0.022583	-0.030518	-0.001984	0.016327	-0.023041	-0.035553	0.017853	0.03479	-0.02243	0.15549	-0.015869	0.006104	-0.011139	-0.38727	-0.022583	-0.14114	-0.043488	0.58472	0.18799	0.011749	0.005951	0.002747	-0.016327	0.028229	0.22507	-0.001984	0.00351
48.227	0.000458	-0.006561	-0.023041	0.009003	0.013275	-0.015411	-0.016479	0.002594	0.00473	-0.018005	-0.012054	-0.00473	-0.006714	-0.03418	0.061493	-0.016937	0.045166	-0.12528	-0.24368	0.036469	-0.32669	0.00412	0.63202	-0.081177	-0.26245	0.057526	-0.0177	0.017395	0.22873	0.29572	-0.003662	0.010834
48.228	0.004425	-0.01297	-0.044861	0.014038	0.01358	0.000153	0.002136	0.001831	0.000763	-0.012817	0.007782	0.003052	-0.037994	-0.048065	0.10727	-0.011749	0.041656	-0.20538	-0.34225	-0.005341	-0.33844	0.042114	0.57861	-0.19257	-0.20615	0.026855	0.011902	-0.039978	0.19775	0.13855	-0.002747	-0.005798
48.229	0.007782	0.011749	-0.056152	-0.000458	0.016937	0.029602	0.014191	0.003357	-0.005798	-0.020752	0.010681	0.010529	-0.013885	-0.030823	0.040436	-0.018768	0.06424	-0.168	-0.38773	-0.033569	0.029755	0.008392	0.36575	0.34943	-0.16098	-0.020294	0.046539	-0.22049	0.068054	-0.28427	-0.002136	-0.006409
48.23	0.006104	0.016785	-0.03479	-0.018921	0.00885	0.013733	0.023651	0.005035	0.002594	-0.02243	-0.019836	0.003204	-0.006104	-0.049896	-0.009613	-0.002899	0.050812	-0.22186	-0.32211	-0.046387	0.43182	0.024872	-0.13092	0.61981	-0.23224	-0.015717	0.042877	0.087891	0.061798	-0.35263	-0.002289	-0.013275
